<svg xmlns="http://www.w3.org/2000/svg" xmlns:xlink="http://www.w3.org/1999/xlink" width="289" zoomAndPan="magnify" viewBox="0 0 216.75 216.749995" height="289" preserveAspectRatio="xMidYMid meet" version="1.0"><defs><clipPath id="c76fb8c9ac"><path d="M 0 0 L 216.5 0 L 216.5 216.5 L 0 216.5 Z M 0 0 " clip-rule="nonzero"/></clipPath><clipPath id="1466b4c4e6"><path d="M 0 0 L 216.257812 0 L 216.257812 216.257812 L 0 216.257812 Z M 0 0 " clip-rule="nonzero"/></clipPath></defs><g clip-path="url(#c76fb8c9ac)"><path fill="#ffffff" d="M 0 0 L 216.5 0 L 216.5 216.5 L 0 216.5 Z M 0 0 " fill-opacity="1" fill-rule="nonzero"/></g><g clip-path="url(#1466b4c4e6)"><path fill="#ffffff" d="M 0 0 L 216.257812 0 L 216.257812 216.257812 L 0 216.257812 Z M 0 0 " fill-opacity="1" fill-rule="nonzero"/></g><path stroke-linecap="butt" transform="matrix(6.553225, 0, 0, 6.553225, 0.0000025, -0.000000000000021292)" fill-opacity="1" fill="#ffffff" fill-rule="nonzero" stroke-linejoin="miter" d="M 1.99985 2.499962 L 9.00022 2.499962 M 11.00007 2.499962 L 14.000144 2.499962 M 14.999771 2.499962 L 17.999845 2.499962 M 19.000068 2.499962 L 20.999918 2.499962 M 23.999992 2.499962 L 30.999766 2.499962 M 1.99985 3.500185 L 3.000073 3.500185 M 7.999997 3.500185 L 9.00022 3.500185 M 9.999847 3.500185 L 11.00007 3.500185 M 14.000144 3.500185 L 15.999994 3.500185 M 17.000218 3.500185 L 17.999845 3.500185 M 20.000291 3.500185 L 22.999768 3.500185 M 23.999992 3.500185 L 25.000215 3.500185 M 30.000139 3.500185 L 30.999766 3.500185 M 1.99985 4.499812 L 3.000073 4.499812 M 4.000296 4.499812 L 6.999774 4.499812 M 7.999997 4.499812 L 9.00022 4.499812 M 12.000294 4.499812 L 12.999921 4.499812 M 14.000144 4.499812 L 14.999771 4.499812 M 17.000218 4.499812 L 17.999845 4.499812 M 20.000291 4.499812 L 20.999918 4.499812 M 22.000141 4.499812 L 22.999768 4.499812 M 23.999992 4.499812 L 25.000215 4.499812 M 25.999842 4.499812 L 28.999915 4.499812 M 30.000139 4.499812 L 30.999766 4.499812 M 1.99985 5.500035 L 3.000073 5.500035 M 4.000296 5.500035 L 6.999774 5.500035 M 7.999997 5.500035 L 9.00022 5.500035 M 11.00007 5.500035 L 12.000294 5.500035 M 15.999994 5.500035 L 19.000068 5.500035 M 20.000291 5.500035 L 20.999918 5.500035 M 22.000141 5.500035 L 22.999768 5.500035 M 23.999992 5.500035 L 25.000215 5.500035 M 25.999842 5.500035 L 28.999915 5.500035 M 30.000139 5.500035 L 30.999766 5.500035 M 1.99985 6.500259 L 3.000073 6.500259 M 4.000296 6.500259 L 6.999774 6.500259 M 7.999997 6.500259 L 9.00022 6.500259 M 9.999847 6.500259 L 11.00007 6.500259 M 12.000294 6.500259 L 12.999921 6.500259 M 14.000144 6.500259 L 14.999771 6.500259 M 15.999994 6.500259 L 17.999845 6.500259 M 20.000291 6.500259 L 22.999768 6.500259 M 23.999992 6.500259 L 25.000215 6.500259 M 25.999842 6.500259 L 28.999915 6.500259 M 30.000139 6.500259 L 30.999766 6.500259 M 1.99985 7.499886 L 3.000073 7.499886 M 7.999997 7.499886 L 9.00022 7.499886 M 14.000144 7.499886 L 22.999768 7.499886 M 23.999992 7.499886 L 25.000215 7.499886 M 30.000139 7.499886 L 30.999766 7.499886 M 1.99985 8.500109 L 9.00022 8.500109 M 9.999847 8.500109 L 11.00007 8.500109 M 12.000294 8.500109 L 12.999921 8.500109 M 14.000144 8.500109 L 14.999771 8.500109 M 15.999994 8.500109 L 17.000218 8.500109 M 17.999845 8.500109 L 19.000068 8.500109 M 20.000291 8.500109 L 20.999918 8.500109 M 22.000141 8.500109 L 22.999768 8.500109 M 23.999992 8.500109 L 30.999766 8.500109 M 11.00007 9.499736 L 12.000294 9.499736 M 12.999921 9.499736 L 20.000291 9.499736 M 20.999918 9.499736 L 22.000141 9.499736 M 1.99985 10.499959 L 3.000073 10.499959 M 4.000296 10.499959 L 4.999923 10.499959 M 6.000147 10.499959 L 6.999774 10.499959 M 7.999997 10.499959 L 9.00022 10.499959 M 12.999921 10.499959 L 15.999994 10.499959 M 17.999845 10.499959 L 20.000291 10.499959 M 20.999918 10.499959 L 22.999768 10.499959 M 25.999842 10.499959 L 27.000065 10.499959 M 28.999915 10.499959 L 30.000139 10.499959 M 1.99985 11.500182 L 7.999997 11.500182 M 9.999847 11.500182 L 12.000294 11.500182 M 12.999921 11.500182 L 14.000144 11.500182 M 14.999771 11.500182 L 17.000218 11.500182 M 17.999845 11.500182 L 19.000068 11.500182 M 20.999918 11.500182 L 25.000215 11.500182 M 27.000065 11.500182 L 28.000288 11.500182 M 30.000139 11.500182 L 30.999766 11.500182 M 3.000073 12.49981 L 6.999774 12.49981 M 7.999997 12.49981 L 11.00007 12.49981 M 14.000144 12.49981 L 15.999994 12.49981 M 17.999845 12.49981 L 20.999918 12.49981 M 22.000141 12.49981 L 27.000065 12.49981 M 28.000288 12.49981 L 30.999766 12.49981 M 3.000073 13.500033 L 4.000296 13.500033 M 6.000147 13.500033 L 7.999997 13.500033 M 9.00022 13.500033 L 11.00007 13.500033 M 12.000294 13.500033 L 12.999921 13.500033 M 14.999771 13.500033 L 17.000218 13.500033 M 19.000068 13.500033 L 20.999918 13.500033 M 23.999992 13.500033 L 25.999842 13.500033 M 28.999915 13.500033 L 30.000139 13.500033 M 1.99985 14.500256 L 4.000296 14.500256 M 4.999923 14.500256 L 6.999774 14.500256 M 7.999997 14.500256 L 9.999847 14.500256 M 12.000294 14.500256 L 12.999921 14.500256 M 15.999994 14.500256 L 17.000218 14.500256 M 19.000068 14.500256 L 20.000291 14.500256 M 22.999768 14.500256 L 25.000215 14.500256 M 27.000065 14.500256 L 28.000288 14.500256 M 28.999915 14.500256 L 30.999766 14.500256 M 3.000073 15.499883 L 4.000296 15.499883 M 4.999923 15.499883 L 6.000147 15.499883 M 9.999847 15.499883 L 11.00007 15.499883 M 17.999845 15.499883 L 20.999918 15.499883 M 22.999768 15.499883 L 25.000215 15.499883 M 27.000065 15.499883 L 28.000288 15.499883 M 30.000139 15.499883 L 30.999766 15.499883 M 1.99985 16.500106 L 3.000073 16.500106 M 4.000296 16.500106 L 9.00022 16.500106 M 9.999847 16.500106 L 11.00007 16.500106 M 12.000294 16.500106 L 14.000144 16.500106 M 14.999771 16.500106 L 15.999994 16.500106 M 19.000068 16.500106 L 20.999918 16.500106 M 22.999768 16.500106 L 25.000215 16.500106 M 25.999842 16.500106 L 28.000288 16.500106 M 28.999915 16.500106 L 30.999766 16.500106 M 1.99985 17.499733 L 4.000296 17.499733 M 4.999923 17.499733 L 6.999774 17.499733 M 9.00022 17.499733 L 12.000294 17.499733 M 12.999921 17.499733 L 14.000144 17.499733 M 17.999845 17.499733 L 20.000291 17.499733 M 22.000141 17.499733 L 22.999768 17.499733 M 25.000215 17.499733 L 25.999842 17.499733 M 27.000065 17.499733 L 28.000288 17.499733 M 28.999915 17.499733 L 30.000139 17.499733 M 1.99985 18.499957 L 6.000147 18.499957 M 6.999774 18.499957 L 9.00022 18.499957 M 9.999847 18.499957 L 14.999771 18.499957 M 17.000218 18.499957 L 19.000068 18.499957 M 23.999992 18.499957 L 25.999842 18.499957 M 27.000065 18.499957 L 28.000288 18.499957 M 28.999915 18.499957 L 30.999766 18.499957 M 3.000073 19.50018 L 4.000296 19.50018 M 4.999923 19.50018 L 6.999774 19.50018 M 9.00022 19.50018 L 9.999847 19.50018 M 14.999771 19.50018 L 15.999994 19.50018 M 20.999918 19.50018 L 25.000215 19.50018 M 27.000065 19.50018 L 28.999915 19.50018 M 30.000139 19.50018 L 30.999766 19.50018 M 1.99985 20.499807 L 3.000073 20.499807 M 4.000296 20.499807 L 6.999774 20.499807 M 7.999997 20.499807 L 9.00022 20.499807 M 11.00007 20.499807 L 12.999921 20.499807 M 15.999994 20.499807 L 17.000218 20.499807 M 22.999768 20.499807 L 23.999992 20.499807 M 28.999915 20.499807 L 30.999766 20.499807 M 3.000073 21.50003 L 6.999774 21.50003 M 9.999847 21.50003 L 12.000294 21.50003 M 12.999921 21.50003 L 17.999845 21.50003 M 19.000068 21.50003 L 20.999918 21.50003 M 23.999992 21.50003 L 25.000215 21.50003 M 25.999842 21.50003 L 28.000288 21.50003 M 28.999915 21.50003 L 30.000139 21.50003 M 1.99985 22.500253 L 3.000073 22.500253 M 4.999923 22.500253 L 6.000147 22.500253 M 7.999997 22.500253 L 9.00022 22.500253 M 14.000144 22.500253 L 14.999771 22.500253 M 15.999994 22.500253 L 19.000068 22.500253 M 22.000141 22.500253 L 27.000065 22.500253 M 9.999847 23.49988 L 11.00007 23.49988 M 12.999921 23.49988 L 14.999771 23.49988 M 15.999994 23.49988 L 22.999768 23.49988 M 25.999842 23.49988 L 27.000065 23.49988 M 28.000288 23.49988 L 30.999766 23.49988 M 1.99985 24.500104 L 9.00022 24.500104 M 11.00007 24.500104 L 12.000294 24.500104 M 14.999771 24.500104 L 15.999994 24.500104 M 19.000068 24.500104 L 20.999918 24.500104 M 22.000141 24.500104 L 22.999768 24.500104 M 23.999992 24.500104 L 25.000215 24.500104 M 25.999842 24.500104 L 28.000288 24.500104 M 28.999915 24.500104 L 30.999766 24.500104 M 1.99985 25.499731 L 3.000073 25.499731 M 7.999997 25.499731 L 9.00022 25.499731 M 11.00007 25.499731 L 14.999771 25.499731 M 17.000218 25.499731 L 17.999845 25.499731 M 19.000068 25.499731 L 20.000291 25.499731 M 22.000141 25.499731 L 22.999768 25.499731 M 25.999842 25.499731 L 28.000288 25.499731 M 30.000139 25.499731 L 30.999766 25.499731 M 1.99985 26.499954 L 3.000073 26.499954 M 4.000296 26.499954 L 6.999774 26.499954 M 7.999997 26.499954 L 9.00022 26.499954 M 9.999847 26.499954 L 11.00007 26.499954 M 14.000144 26.499954 L 14.999771 26.499954 M 17.999845 26.499954 L 20.000291 26.499954 M 22.000141 26.499954 L 27.000065 26.499954 M 28.999915 26.499954 L 30.999766 26.499954 M 1.99985 27.500177 L 3.000073 27.500177 M 4.000296 27.500177 L 6.999774 27.500177 M 7.999997 27.500177 L 9.00022 27.500177 M 12.000294 27.500177 L 12.999921 27.500177 M 14.000144 27.500177 L 14.999771 27.500177 M 17.000218 27.500177 L 20.999918 27.500177 M 22.000141 27.500177 L 22.999768 27.500177 M 25.000215 27.500177 L 27.000065 27.500177 M 28.000288 27.500177 L 30.999766 27.500177 M 1.99985 28.499804 L 3.000073 28.499804 M 4.000296 28.499804 L 6.999774 28.499804 M 7.999997 28.499804 L 9.00022 28.499804 M 9.999847 28.499804 L 14.999771 28.499804 M 15.999994 28.499804 L 17.000218 28.499804 M 19.000068 28.499804 L 22.000141 28.499804 M 22.999768 28.499804 L 23.999992 28.499804 M 25.999842 28.499804 L 28.000288 28.499804 M 30.000139 28.499804 L 30.999766 28.499804 M 1.99985 29.500027 L 3.000073 29.500027 M 7.999997 29.500027 L 9.00022 29.500027 M 12.999921 29.500027 L 14.999771 29.500027 M 17.000218 29.500027 L 20.000291 29.500027 M 20.999918 29.500027 L 23.999992 29.500027 M 25.999842 29.500027 L 27.000065 29.500027 M 28.999915 29.500027 L 30.000139 29.500027 M 1.99985 30.500251 L 9.00022 30.500251 M 9.999847 30.500251 L 11.00007 30.500251 M 12.000294 30.500251 L 12.999921 30.500251 M 14.000144 30.500251 L 15.999994 30.500251 M 17.999845 30.500251 L 19.000068 30.500251 M 22.000141 30.500251 L 22.999768 30.500251 M 25.000215 30.500251 L 27.000065 30.500251 M 28.999915 30.500251 L 30.999766 30.500251 " stroke="#19469b" stroke-width="1" stroke-opacity="1" stroke-miterlimit="4"/></svg>